<svg xmlns="http://www.w3.org/2000/svg" viewBox="0 0 500 400" width="100%" height="100%">
  <defs>
    <marker id="arrow-black" markerWidth="10" markerHeight="10" refX="8" refY="5" orient="auto">
      <path d="M0,0 L10,5 L0,10 Z" fill="#555" />
    </marker>
    <marker id="arrow-red" markerWidth="10" markerHeight="10" refX="8" refY="5" orient="auto">
      <path d="M0,0 L10,5 L0,10 Z" fill="#e63946" />
    </marker>
    <marker id="arrow-blue" markerWidth="10" markerHeight="10" refX="8" refY="5" orient="auto">
      <path d="M0,0 L10,5 L0,10 Z" fill="#1d3557" />
    </marker>
  </defs>

  <line x1="80" y1="320" x2="450" y2="320" stroke="#555" stroke-width="2" marker-end="url(#arrow-black)"/>
  <line x1="80" y1="320" x2="80" y2="50" stroke="#555" stroke-width="2" marker-end="url(#arrow-black)"/>

  <text x="460" y="325" font-family="sans-serif" font-size="18" fill="#555" font-style="italic">x</text>
  <text x="60" y="45" font-family="sans-serif" font-size="18" fill="#555" font-style="italic">y</text>

  <line x1="380" y1="320" x2="380" y2="120" stroke="#aaa" stroke-width="2" stroke-dasharray="5,5"/>
  <line x1="80" y1="120" x2="380" y2="120" stroke="#aaa" stroke-width="2" stroke-dasharray="5,5"/>

  <path d="M 150 320 A 70 70 0 0 0 135 275" fill="none" stroke="#333" stroke-width="2"/>
  <text x="155" y="305" font-family="sans-serif" font-size="20" fill="#333" font-style="italic">θ</text>

  <line x1="80" y1="320" x2="380" y2="320" stroke="#1d3557" stroke-width="4" marker-end="url(#arrow-blue)"/>
  <text x="220" y="350" font-family="sans-serif" font-size="20" fill="#1d3557" font-weight="bold">Fx</text>

  <line x1="80" y1="320" x2="80" y2="120" stroke="#1d3557" stroke-width="4" marker-end="url(#arrow-blue)"/>
  <text x="40" y="220" font-family="sans-serif" font-size="20" fill="#1d3557" font-weight="bold">Fy</text>

  <line x1="80" y1="320" x2="380" y2="120" stroke="#e63946" stroke-width="5" marker-end="url(#arrow-red)"/>
  <text x="220" y="200" font-family="sans-serif" font-size="26" fill="#e63946" font-weight="bold" font-style="italic">F</text>
</svg>
